<?xml version="1.0" encoding="utf-8"?>
<!-- Generator: Adobe Illustrator 19.0.0, SVG Export Plug-In . SVG Version: 6.00 Build 0)  -->
<svg version="1.1" id="Capa_1" xmlns="http://www.w3.org/2000/svg" xmlns:xlink="http://www.w3.org/1999/xlink" x="0px" y="0px"
	 viewBox="-171.9 435.9 30 30" style="enable-background:new -171.9 435.9 30 30;" xml:space="preserve">
<g>
		<path class="fill" d="M-156.1,465.8c-8.7,0-15.8-7.1-15.8-15.8c0-6,3.4-11.4,8.8-14.1c0.2-0.1,0.5-0.1,0.7,0.1c0.2,0.2,0.2,0.5,0.1,0.7
			c-1,2-1.5,4.2-1.5,6.4c0,8,6.5,14.5,14.5,14.5c2.3,0,4.4-0.5,6.5-1.5c0.2-0.1,0.5-0.1,0.7,0.1c0.2,0.2,0.2,0.5,0.1,0.7
			C-144.6,462.5-150,465.8-156.1,465.8z"/>
</g>
</svg>
