<?xml version="1.0" encoding="utf-8"?>
<!-- Generator: Adobe Illustrator 19.0.0, SVG Export Plug-In . SVG Version: 6.00 Build 0)  -->
<svg version="1.1" xmlns="http://www.w3.org/2000/svg" xmlns:xlink="http://www.w3.org/1999/xlink" x="0px" y="0px"
	 viewBox="0 0 550 150" style="enable-background:new 0 0 550 150;" xml:space="preserve">
<g>
		<path d="M55.3,41.9c4.1,0,8.1,0.6,12.1,1.7c3.9,1.2,7.4,2.9,10.3,5.2c3-2,6.4-3.6,10.1-5c3.8-1.3,8.3-2,13.6-2
			c3.8,0,7.5,0.5,11.2,1.5c3.6,1,6.9,2.6,9.8,4.7c2.9,2.2,5.1,5,6.8,8.5c1.7,3.6,2.6,7.9,2.6,13v47.3c-1,0.3-2.6,0.6-4.7,0.9
			c-2.2,0.3-4.4,0.5-6.7,0.5c-2.2,0-4.2-0.2-5.9-0.5c-1.8-0.3-3.2-0.9-4.4-1.8c-1.2-0.9-2.1-2.1-2.8-3.7c-0.7-1.5-1-3.6-1-6.1V70.4
			c0-3-0.9-5.2-2.6-6.5c-1.7-1.4-4-2-6.9-2c-1.4,0-2.9,0.3-4.5,1c-1.6,0.7-2.8,1.3-3.6,2c0.1,0.4,0.2,0.8,0.2,1.1c0,0.4,0,0.7,0,1
			v50c-1.1,0.3-2.7,0.6-4.9,0.9c-2.2,0.3-4.3,0.5-6.5,0.5c-2.2,0-4.2-0.2-5.9-0.5c-1.8-0.3-3.2-0.9-4.4-1.8
			c-1.2-0.9-2.1-2.1-2.8-3.7c-0.7-1.5-1-3.6-1-6.1V70.4c0-3-0.9-5.2-2.8-6.5c-1.9-1.4-4.1-2-6.7-2c-1.8,0-3.4,0.3-4.6,0.8
			c-1.3,0.6-2.4,1.1-3.3,1.6v52.6c-1,0.3-2.6,0.6-4.7,0.9c-2.2,0.3-4.4,0.5-6.7,0.5c-2.2,0-4.2-0.2-5.9-0.5
			c-1.8-0.3-3.2-0.9-4.4-1.8c-1.2-0.9-2.1-2.1-2.8-3.7c-0.7-1.5-1-3.6-1-6.1V60.9c0-2.7,0.6-4.8,1.7-6.4c1.1-1.6,2.7-3.1,4.7-4.5
			c3.4-2.4,7.6-4.4,12.7-5.9C44.6,42.6,49.8,41.9,55.3,41.9z"/>
		<path d="M156.4,98.4c-1.1-2.5-2.3-5.3-3.5-8.4c-1.3-3.1-2.5-6.6-3.9-10.7c-1.4-4-2.8-8.6-4.2-13.7
			c-1.5-5.1-3-11.1-4.6-17.8c1.4-1.4,3.3-2.6,5.6-3.7c2.3-1,4.9-1.6,7.7-1.6c3.5,0,6.4,0.7,8.7,2.2c2.3,1.5,4,4.2,5.1,8.2l11.9,41.3
			h0.6c1.2-3.4,2.4-7.1,3.5-11.1c1.1-4,2.3-8.1,3.4-12.4c1.1-4.2,2.1-8.5,3.1-12.8c0.9-4.2,1.8-8.4,2.5-12.5
			c3.6-1.9,7.5-2.9,11.9-2.9c3.5,0,6.4,0.8,8.7,2.3c2.3,1.5,3.4,4.1,3.4,7.8c0,2.7-0.4,5.8-1,9.4c-0.7,3.6-1.6,7.3-2.8,11.3
			c-1.2,4-2.5,8.1-4.1,12.4c-1.6,4.3-3.2,8.4-4.9,12.5c-1.7,4.1-3.4,8-5.3,11.6c-1.8,3.7-3.6,6.9-5.3,9.8c-2.8,4.9-5.4,8.9-7.8,12
			c-2.4,3.1-4.7,5.5-6.9,7.3c-2.2,1.7-4.4,2.9-6.6,3.6c-2.2,0.6-4.5,1-6.9,1c-4.2,0-7.6-1.3-10.2-3.8c-2.6-2.5-4.2-5.8-4.6-9.8
			c3.2-2.5,6.4-5.3,9.6-8.3c3.2-3.1,6.1-6.2,8.7-9.4c-1.7-0.5-3.5-1.7-5.5-3.5C160.9,107,158.7,103.5,156.4,98.4z"/>
		<path d="M225.4,47.1c-0.7-1.1-1.3-2.6-1.9-4.5c-0.6-1.9-0.9-3.9-0.9-6c0-3.9,0.9-6.7,2.6-8.4
			c1.7-1.7,4-2.6,6.8-2.6h65.4c0.7,1.1,1.4,2.6,2,4.5c0.6,1.9,0.9,3.9,0.9,6c0,3.9-0.9,6.7-2.6,8.4c-1.8,1.7-4,2.5-6.8,2.5h-16.7
			v69.3c-1.1,0.3-2.8,0.6-5.2,0.9c-2.4,0.3-4.7,0.5-7,0.5c-2.3,0-4.3-0.2-6.1-0.5c-1.8-0.3-3.2-1-4.4-1.9c-1.2-0.9-2.1-2.1-2.7-3.8
			c-0.6-1.6-0.9-3.7-0.9-6.3V47.1H225.4z"/>
		<path d="M336.6,41.9c5.4,0,10.3,0.6,14.8,1.7c4.4,1.1,8.3,2.8,11.4,5c3.1,2.3,5.6,5.1,7.3,8.6
			c1.7,3.4,2.5,7.5,2.5,12.2v33.6c0,2.6-0.7,4.7-2.2,6.4c-1.5,1.7-3.2,3.1-5.2,4.3c-6.5,3.9-15.7,5.8-27.5,5.8
			c-5.3,0-10.1-0.5-14.3-1.5c-4.3-1-7.9-2.5-10.9-4.5c-3.1-2-5.4-4.5-7.1-7.6c-1.6-3.1-2.5-6.7-2.5-10.8c0-6.9,2-12.2,6.2-15.9
			c4.1-3.7,10.4-6,19-6.9l19.6-2.1v-1c0-2.9-1.3-5-3.8-6.2c-2.6-1.2-6.2-1.9-11-1.9c-3.8,0-7.5,0.4-11.1,1.2c-3.6,0.8-6.9,1.8-9.8,3
			c-1.3-0.9-2.4-2.3-3.3-4.1c-0.9-1.8-1.3-3.8-1.3-5.8c0-2.6,0.6-4.7,1.9-6.2c1.2-1.5,3.2-2.9,5.8-4c2.9-1.1,6.3-1.9,10.3-2.4
			C329.4,42.1,333.1,41.9,336.6,41.9z M337.8,100.8c1.7,0,3.6-0.2,5.6-0.5c2-0.3,3.6-0.8,4.6-1.4v-12l-10.8,0.9
			c-2.8,0.2-5.1,0.8-6.9,1.8c-1.8,1-2.7,2.5-2.7,4.5c0,2,0.8,3.6,2.3,4.9C331.5,100.2,334.1,100.8,337.8,100.8z"/>
		<path d="M449.7,95.3c0,7.6-2.8,13.6-8.5,17.8c-5.7,4.3-14.1,6.5-25.2,6.5c-4.2,0-8.1-0.3-11.7-0.9
			c-3.6-0.6-6.7-1.5-9.2-2.8s-4.6-2.8-6-4.7c-1.5-1.9-2.2-4.1-2.2-6.8c0-2.4,0.5-4.4,1.5-6.1c1-1.7,2.2-3,3.6-4.1
			c2.9,1.6,6.2,3,10,4.3c3.8,1.3,8.1,1.9,13,1.9c3.1,0,5.5-0.5,7.1-1.3c1.7-0.9,2.5-2.1,2.5-3.6c0-1.4-0.6-2.5-1.8-3.3
			c-1.2-0.8-3.2-1.4-6-2l-4.5-0.9c-8.7-1.7-15.2-4.4-19.4-8c-4.3-3.6-6.4-8.9-6.4-15.7c0-3.7,0.8-7,2.4-10c1.6-3,3.8-5.5,6.8-7.5
			c2.9-2,6.4-3.5,10.4-4.7c4-1.1,8.5-1.6,13.4-1.6c3.7,0,7.2,0.3,10.4,0.8c3.2,0.6,6.1,1.4,8.5,2.5c2.4,1.1,4.3,2.5,5.7,4.3
			c1.4,1.8,2.1,3.8,2.1,6.2c0,2.3-0.4,4.3-1.3,5.9c-0.9,1.7-1.9,3-3.2,4.1c-0.8-0.5-2-1-3.6-1.6c-1.6-0.5-3.4-1-5.3-1.5
			c-1.9-0.5-3.8-0.8-5.8-1.1s-3.7-0.5-5.3-0.5c-3.3,0-5.8,0.4-7.7,1.1c-1.8,0.8-2.7,1.9-2.7,3.5c0,1.1,0.5,2,1.5,2.7
			c1,0.7,2.9,1.3,5.7,2l4.7,1c9.6,2.2,16.4,5.2,20.5,9.1C447.7,84.2,449.7,89.2,449.7,95.3z"/>
		<path d="M533.2,103.8c-0.5,4.7-1.9,8.3-4.1,10.8c-2.3,2.5-5.5,3.8-9.8,3.8c-3.2,0-6.1-0.8-8.5-2.3
			c-2.5-1.5-5.2-4.2-8.1-7.9l-14.9-18.6v27.3c-1.1,0.2-2.7,0.5-4.9,0.8c-2.2,0.3-4.3,0.5-6.5,0.5c-2.2,0-4.2-0.2-5.9-0.5
			c-1.8-0.3-3.2-0.9-4.4-1.8c-1.2-0.9-2.1-2.1-2.8-3.7c-0.7-1.5-1-3.6-1-6.1V19.4c1.1-0.3,2.7-0.6,4.9-1c2.1-0.3,4.3-0.5,6.5-0.5
			c2.2,0,4.2,0.2,5.9,0.5c1.7,0.3,3.2,0.9,4.4,1.8c1.2,0.9,2.1,2.1,2.8,3.7c0.6,1.6,1,3.6,1,6.1v39.6l25.8-26.4
			c5.2,0,9.4,1.2,12.5,3.5c3.2,2.3,4.7,5.2,4.7,8.7c0,1.5-0.3,2.9-0.8,4.1c-0.5,1.3-1.3,2.5-2.3,3.8c-1,1.3-2.4,2.7-4,4.1
			c-1.7,1.5-3.6,3.1-5.8,5l-8.7,7.5L533.2,103.8z"/>
</g>
</svg>
