<svg version="1.1" xmlns="http://www.w3.org/2000/svg" xmlns:xlink="http://www.w3.org/1999/xlink" x="0px" y="0px"
	 viewBox="0 0 1040 1040" style="enable-background:new 0 0 1040 1040;" xml:space="preserve">
<style type="text/css">
	.iconCircle{fill:#F3A712;}
	.iconInner{fill:#FFFFFF;}
</style>
<circle class="iconCircle" cx="520" cy="520" r="520"/>
<g transform="translate(-16.328187,-6.1230703)">
	<path class="iconInner" d="M256.9,751.2c5.4,0,10.6,0.8,15.8,2.2c5.1,1.6,9.7,3.8,13.5,6.8c3.9-2.6,8.4-4.7,13.2-6.5
		c5-1.7,10.8-2.6,17.8-2.6c5,0,9.8,0.7,14.6,2c4.7,1.3,9,3.4,12.8,6.1c3.8,2.9,6.7,6.5,8.9,11.1c2.2,4.7,3.4,10.3,3.4,17v61.8
		c-1.3,0.4-3.4,0.8-6.1,1.2c-2.9,0.4-5.7,0.7-8.8,0.7c-2.9,0-5.5-0.3-7.7-0.7c-2.4-0.4-4.2-1.2-5.7-2.4s-2.7-2.7-3.7-4.8
		c-0.9-2-1.3-4.7-1.3-8v-46.6c0-3.9-1.2-6.8-3.4-8.5c-2.2-1.8-5.2-2.6-9-2.6c-1.8,0-3.8,0.4-5.9,1.3c-2.1,0.9-3.7,1.7-4.7,2.6
		c0.1,0.5,0.3,1,0.3,1.4c0,0.5,0,0.9,0,1.3v65.3c-1.4,0.4-3.5,0.8-6.4,1.2c-2.9,0.4-5.6,0.7-8.5,0.7s-5.5-0.3-7.7-0.7
		c-2.4-0.4-4.2-1.2-5.7-2.4s-2.7-2.7-3.7-4.8c-0.9-2-1.3-4.7-1.3-8v-46.9c0-3.9-1.2-6.8-3.7-8.5c-2.5-1.8-5.4-2.6-8.8-2.6
		c-2.4,0-4.4,0.4-6,1c-1.7,0.8-3.1,1.4-4.3,2.1v68.7c-1.3,0.4-3.4,0.8-6.1,1.2c-2.9,0.4-5.7,0.7-8.8,0.7c-2.9,0-5.5-0.3-7.7-0.7
		c-2.4-0.4-4.2-1.2-5.7-2.4c-1.6-1.2-2.7-2.7-3.7-4.8c-0.9-2-1.3-4.7-1.3-8v-59.2c0-3.5,0.8-6.3,2.2-8.4c1.4-2.1,3.5-4,6.1-5.9
		c4.4-3.1,9.9-5.7,16.6-7.7C243,752.2,249.8,751.2,256.9,751.2z"/>
	<path class="iconInner" d="M389,825.1c-1.4-3.3-3-6.9-4.6-11c-1.7-4-3.3-8.6-5.1-14c-1.8-5.2-3.7-11.2-5.5-17.9
		c-2-6.7-3.9-14.5-6-23.3c1.8-1.8,4.3-3.4,7.3-4.8c3-1.3,6.4-2.1,10.1-2.1c4.6,0,8.4,0.9,11.4,2.9c3,2,5.2,5.5,6.7,10.7l15.5,53.9
		h0.8c1.6-4.4,3.1-9.3,4.6-14.5c1.4-5.2,3-10.6,4.4-16.2c1.4-5.5,2.7-11.1,4-16.7c1.2-5.5,2.4-11,3.3-16.3c4.7-2.5,9.8-3.8,15.5-3.8
		c4.6,0,8.4,1,11.4,3c3,2,4.4,5.4,4.4,10.2c0,3.5-0.5,7.6-1.3,12.3c-0.9,4.7-2.1,9.5-3.7,14.8c-1.6,5.2-3.3,10.6-5.4,16.2
		s-4.2,11-6.4,16.3c-2.2,5.4-4.4,10.4-6.9,15.2c-2.4,4.8-4.7,9-6.9,12.8c-3.7,6.4-7.1,11.6-10.2,15.7c-3.1,4-6.1,7.2-9,9.5
		c-2.9,2.2-5.7,3.8-8.6,4.7c-2.9,0.8-5.9,1.3-9,1.3c-5.5,0-9.9-1.7-13.3-5s-5.5-7.6-6-12.8c4.2-3.3,8.4-6.9,12.5-10.8
		c4.2-4,8-8.1,11.4-12.3c-2.2-0.7-4.6-2.2-7.2-4.6C394.9,836.3,392,831.7,389,825.1L389,825.1z"/>
	<path class="iconInner" d="M479.1,758c-0.9-1.4-1.7-3.4-2.5-5.9s-1.2-5.1-1.2-7.8c0-5.1,1.2-8.8,3.4-11
		c2.2-2.2,5.2-3.4,8.9-3.4h85.4c0.9,1.4,1.8,3.4,2.6,5.9c0.8,2.5,1.2,5.1,1.2,7.8c0,5.1-1.2,8.8-3.4,11c-2.4,2.2-5.2,3.3-8.9,3.3
		h-21.8v90.5c-1.4,0.4-3.7,0.8-6.8,1.2s-6.1,0.7-9.1,0.7s-5.6-0.3-8-0.7s-4.2-1.3-5.7-2.5s-2.7-2.7-3.5-5c-0.8-2.1-1.2-4.8-1.2-8.2
		V758H479.1z"/>
	<path class="iconInner" d="M624.4,751.2c7.1,0,13.5,0.8,19.3,2.2c5.7,1.4,10.8,3.7,14.9,6.5c4,3,7.3,6.7,9.5,11.2
		c2.2,4.4,3.3,9.8,3.3,15.9v43.9c0,3.4-0.9,6.1-2.9,8.4s-4.2,4-6.8,5.6c-8.5,5.1-20.5,7.6-35.9,7.6c-6.9,0-13.2-0.7-18.7-2
		c-5.6-1.3-10.3-3.3-14.2-5.9c-4-2.6-7.1-5.9-9.3-9.9c-2.1-4-3.3-8.8-3.3-14.1c0-9,2.6-15.9,8.1-20.8c5.4-4.8,13.6-7.8,24.8-9
		l25.6-2.7v-1.3c0-3.8-1.7-6.5-5-8.1c-3.4-1.6-8.1-2.5-14.4-2.5c-5,0-9.8,0.5-14.5,1.6s-9,2.4-12.8,3.9c-1.7-1.2-3.1-3-4.3-5.4
		c-1.2-2.4-1.7-5-1.7-7.6c0-3.4,0.8-6.1,2.5-8.1c1.6-2,4.2-3.8,7.6-5.2c3.8-1.4,8.2-2.5,13.5-3.1C615,751.5,619.8,751.2,624.4,751.2
		z M626,828.2c2.2,0,4.7-0.3,7.3-0.7c2.6-0.4,4.7-1,6-1.8V810l-14.1,1.2c-3.7,0.3-6.7,1-9,2.4c-2.4,1.3-3.5,3.3-3.5,5.9
		c0,2.6,1,4.7,3,6.4C617.7,827.4,621.1,828.2,626,828.2z"/>
	<path class="iconInner" d="M772.1,821c0,9.9-3.7,17.8-11.1,23.3c-7.4,5.6-18.4,8.5-32.9,8.5c-5.5,0-10.6-0.4-15.3-1.2
		c-4.7-0.8-8.8-2-12-3.7c-3.3-1.7-6-3.7-7.8-6.1c-2-2.5-2.9-5.4-2.9-8.9c0-3.1,0.7-5.7,2-8c1.3-2.2,2.9-3.9,4.7-5.4
		c3.8,2.1,8.1,3.9,13.1,5.6c5,1.7,10.6,2.5,17,2.5c4,0,7.2-0.7,9.3-1.7c2.2-1.2,3.3-2.7,3.3-4.7c0-1.8-0.8-3.3-2.4-4.3
		s-4.2-1.8-7.8-2.6l-5.9-1.2c-11.4-2.2-19.9-5.7-25.3-10.4c-5.6-4.7-8.4-11.6-8.4-20.5c0-4.8,1-9.1,3.1-13.1c2.1-3.9,5-7.2,8.9-9.8
		c3.8-2.6,8.4-4.6,13.6-6.1c5.2-1.4,11.1-2.1,17.5-2.1c4.8,0,9.4,0.4,13.6,1c4.2,0.8,8,1.8,11.1,3.3c3.1,1.4,5.6,3.3,7.4,5.6
		s2.7,5,2.7,8.1c0,3-0.5,5.6-1.7,7.7c-1.2,2.2-2.5,3.9-4.2,5.4c-1-0.7-2.6-1.3-4.7-2.1c-2.1-0.7-4.4-1.3-6.9-2c-2.5-0.7-5-1-7.6-1.4
		c-2.6-0.4-4.8-0.7-6.9-0.7c-4.3,0-7.6,0.5-10.1,1.4c-2.4,1-3.5,2.5-3.5,4.6c0,1.4,0.7,2.6,2,3.5s3.8,1.7,7.4,2.6l6.1,1.3
		c12.5,2.9,21.4,6.8,26.8,11.9C769.5,806.5,772.1,813,772.1,821z"/>
	<path class="iconInner" d="M881.2,832.1c-0.7,6.1-2.5,10.8-5.4,14.1c-3,3.3-7.2,5-12.8,5c-4.2,0-8-1-11.1-3
		c-3.3-2-6.8-5.5-10.6-10.3l-19.5-24.3v35.7c-1.4,0.3-3.5,0.7-6.4,1c-2.9,0.4-5.6,0.7-8.5,0.7c-2.9,0-5.5-0.3-7.7-0.7
		c-2.4-0.4-4.2-1.2-5.7-2.4c-1.6-1.2-2.7-2.7-3.7-4.8c-0.9-2-1.3-4.7-1.3-8V721.9c1.4-0.4,3.5-0.8,6.4-1.3c2.7-0.4,5.6-0.7,8.5-0.7
		s5.5,0.3,7.7,0.7c2.2,0.4,4.2,1.2,5.7,2.4c1.6,1.2,2.7,2.7,3.7,4.8c0.8,2.1,1.3,4.7,1.3,8v51.7l33.7-34.5c6.8,0,12.3,1.6,16.3,4.6
		c4.2,3,6.1,6.8,6.1,11.4c0,2-0.4,3.8-1,5.4c-0.7,1.7-1.7,3.3-3,5c-1.3,1.7-3.1,3.5-5.2,5.4c-2.2,2-4.7,4-7.6,6.5l-11.4,9.8
		L881.2,832.1z"/>
</g>
<g transform="matrix(2.9118113,0,0,2.9118113,404.26109,-1245.034)">
	<path id="path15" class="iconInner" d="M163,510.8c0-3.2-1.1-5.8-3.2-7.9l-4.8-4.8c-2.1-2.1-5.3-3.2-7.9-3.2c-2.6,0-5.8,1.1-7.9,3.2
		l-21.1,21.1v-22.7c0-2.1-1.6-4.2-4.2-4.2H-37.3c-2.1,0-4.2,1.6-4.2,4.2v150.7c0,2.1,1.6,4.2,4.2,4.2h150.7c2.1,0,4.2-1.6,4.2-4.2
		v-85.6l42.3-42.3C161.9,517.2,163,514,163,510.8z M109.1,643.5H-33.1V501.3h142.2v27l-74.5,74c-0.5,0.5-0.5,1.1-1.1,1.6l-7.4,22.7
		c-0.5,1.6,0,3.2,1.1,4.2c0.5,0.5,1.6,1.1,2.6,1.1c0.5,0,1.1,0,1.1,0l22.7-7.4c0.5,0,1.1-0.5,1.6-1.1l53.4-53.4v73.5H109.1z
		 M50.4,617.1l-14.3,4.8l4.8-14.3l86.2-86.2l9.5,9.5L50.4,617.1z M154,513.5l-11.1,11.1l-4.8-4.8l-4.8-4.8l11.1-11.1
		c0.5-0.5,1.6-1.1,2.6-1.1c1.1,0,1.6,0.5,2.6,1.1l4.8,4.8l0,0c0.5,0.5,1.1,1.6,1.1,2.6C155.1,511.9,154.5,513,154,513.5L154,513.5z"
		/>
	<path class="iconInner" d="M85.8,518.2h-3.7c-2.1,0-4.2,1.6-4.2,4.2c0,2.6,1.6,4.2,4.2,4.2h3.7c2.1,0,4.2-1.6,4.2-4.2
		C90.1,520.4,87.9,518.2,85.8,518.2z"/>
	<path class="iconInner" d="M64.2,518.2h-74c-2.1,0-4.2,1.6-4.2,4.2c0,2.6,1.6,4.2,4.2,4.2h74c2.1,0,4.2-1.6,4.2-4.2
		C68.4,520.4,66.3,518.2,64.2,518.2L64.2,518.2z"/>
	<path class="iconInner" d="M60.5,542H-9.9c-2.1,0-4.2,1.6-4.2,4.2c0,2.1,1.6,4.2,4.2,4.2h70.3c2.1,0,4.2-1.6,4.2-4.2
		C64.2,543.6,62.6,542,60.5,542L60.5,542z"/>
	<path class="iconInner" d="M35.1,565.8H-9.9c-2.1,0-4.2,1.6-4.2,4.2c0,2.1,1.6,4.2,4.2,4.2h44.9c2.1,0,4.2-1.6,4.2-4.2
		C38.8,567.4,37.2,565.8,35.1,565.8z"/>
	<path class="iconInner" d="M15.5,589.1H-9.9c-2.1,0-4.2,1.6-4.2,4.2c0,2.6,1.6,4.2,4.2,4.2h25.4c2.1,0,4.2-1.6,4.2-4.2
		C19.7,590.7,17.6,589.1,15.5,589.1z"/>
</g>
</svg>
