<?xml version="1.0" encoding="UTF-8" standalone="no"?>
<svg
   xmlns:dc="http://purl.org/dc/elements/1.1/"
   xmlns:cc="http://creativecommons.org/ns#"
   xmlns:rdf="http://www.w3.org/1999/02/22-rdf-syntax-ns#"
   xmlns:svg="http://www.w3.org/2000/svg"
   xmlns="http://www.w3.org/2000/svg"
   height="150"
   width="650"
   id="svg16"
   xml:space="preserve"
   viewBox="0 0 650 150"
   y="0px"
   x="0px"
   version="1.1"><metadata
   id="metadata22"><rdf:RDF><cc:Work
       rdf:about=""><dc:format>image/svg+xml</dc:format><dc:type
         rdf:resource="http://purl.org/dc/dcmitype/StillImage" /><dc:title></dc:title></cc:Work></rdf:RDF></metadata><defs
   id="defs20" />
<g
   transform="translate(-16.328187,-6.1230703)"
   class="fill"
   id="g14">
		<path
   class="fill"
   id="path2"
   d="m 55.3,41.9 c 4.1,0 8.1,0.6 12.1,1.7 3.9,1.2 7.4,2.9 10.3,5.2 3,-2 6.4,-3.6 10.1,-5 3.8,-1.3 8.3,-2 13.6,-2 3.8,0 7.5,0.5 11.2,1.5 3.6,1 6.9,2.6 9.8,4.7 2.9,2.2 5.1,5 6.8,8.5 1.7,3.6 2.6,7.9 2.6,13 v 47.3 c -1,0.3 -2.6,0.6 -4.7,0.9 -2.2,0.3 -4.4,0.5 -6.7,0.5 -2.2,0 -4.2,-0.2 -5.9,-0.5 -1.8,-0.3 -3.2,-0.9 -4.4,-1.8 -1.2,-0.9 -2.1,-2.1 -2.8,-3.7 -0.7,-1.5 -1,-3.6 -1,-6.1 V 70.4 c 0,-3 -0.9,-5.2 -2.6,-6.5 -1.7,-1.4 -4,-2 -6.9,-2 -1.4,0 -2.9,0.3 -4.5,1 -1.6,0.7 -2.8,1.3 -3.6,2 0.1,0.4 0.2,0.8 0.2,1.1 0,0.4 0,0.7 0,1 v 50 c -1.1,0.3 -2.7,0.6 -4.9,0.9 -2.2,0.3 -4.3,0.5 -6.5,0.5 -2.2,0 -4.2,-0.2 -5.9,-0.5 -1.8,-0.3 -3.2,-0.9 -4.4,-1.8 -1.2,-0.9 -2.1,-2.1 -2.8,-3.7 -0.7,-1.5 -1,-3.6 -1,-6.1 V 70.4 c 0,-3 -0.9,-5.2 -2.8,-6.5 -1.9,-1.4 -4.1,-2 -6.7,-2 -1.8,0 -3.4,0.3 -4.6,0.8 -1.3,0.6 -2.4,1.1 -3.3,1.6 v 52.6 c -1,0.3 -2.6,0.6 -4.7,0.9 -2.2,0.3 -4.4,0.5 -6.7,0.5 -2.2,0 -4.2,-0.2 -5.9,-0.5 -1.8,-0.3 -3.2,-0.9 -4.4,-1.8 -1.2,-0.9 -2.1,-2.1 -2.8,-3.7 -0.7,-1.5 -1,-3.6 -1,-6.1 V 60.9 c 0,-2.7 0.6,-4.8 1.7,-6.4 1.1,-1.6 2.7,-3.1 4.7,-4.5 3.4,-2.4 7.6,-4.4 12.7,-5.9 5,-1.5 10.2,-2.2 15.7,-2.2 z" />
		<path
   class="fill"
   id="path4"
   d="m 156.4,98.4 c -1.1,-2.5 -2.3,-5.3 -3.5,-8.4 -1.3,-3.1 -2.5,-6.6 -3.9,-10.7 -1.4,-4 -2.8,-8.6 -4.2,-13.7 -1.5,-5.1 -3,-11.1 -4.6,-17.8 1.4,-1.4 3.3,-2.6 5.6,-3.7 2.3,-1 4.9,-1.6 7.7,-1.6 3.5,0 6.4,0.7 8.7,2.2 2.3,1.5 4,4.2 5.1,8.2 l 11.9,41.3 h 0.6 c 1.2,-3.4 2.4,-7.1 3.5,-11.1 1.1,-4 2.3,-8.1 3.4,-12.4 1.1,-4.2 2.1,-8.5 3.1,-12.8 0.9,-4.2 1.8,-8.4 2.5,-12.5 3.6,-1.9 7.5,-2.9 11.9,-2.9 3.5,0 6.4,0.8 8.7,2.3 2.3,1.5 3.4,4.1 3.4,7.8 0,2.7 -0.4,5.8 -1,9.4 -0.7,3.6 -1.6,7.3 -2.8,11.3 -1.2,4 -2.5,8.1 -4.1,12.4 -1.6,4.3 -3.2,8.4 -4.9,12.5 -1.7,4.1 -3.4,8 -5.3,11.6 -1.8,3.7 -3.6,6.9 -5.3,9.8 -2.8,4.9 -5.4,8.9 -7.8,12 -2.4,3.1 -4.7,5.5 -6.9,7.3 -2.2,1.7 -4.4,2.9 -6.6,3.6 -2.2,0.6 -4.5,1 -6.9,1 -4.2,0 -7.6,-1.3 -10.2,-3.8 -2.6,-2.5 -4.2,-5.8 -4.6,-9.8 3.2,-2.5 6.4,-5.3 9.6,-8.3 3.2,-3.1 6.1,-6.2 8.7,-9.4 -1.7,-0.5 -3.5,-1.7 -5.5,-3.5 -1.8,-1.7 -4,-5.2 -6.3,-10.3 z" />
		<path
   class="fill"
   id="path6"
   d="m 225.4,47.1 c -0.7,-1.1 -1.3,-2.6 -1.9,-4.5 -0.6,-1.9 -0.9,-3.9 -0.9,-6 0,-3.9 0.9,-6.7 2.6,-8.4 1.7,-1.7 4,-2.6 6.8,-2.6 h 65.4 c 0.7,1.1 1.4,2.6 2,4.5 0.6,1.9 0.9,3.9 0.9,6 0,3.9 -0.9,6.7 -2.6,8.4 -1.8,1.7 -4,2.5 -6.8,2.5 h -16.7 v 69.3 c -1.1,0.3 -2.8,0.6 -5.2,0.9 -2.4,0.3 -4.7,0.5 -7,0.5 -2.3,0 -4.3,-0.2 -6.1,-0.5 -1.8,-0.3 -3.2,-1 -4.4,-1.9 -1.2,-0.9 -2.1,-2.1 -2.7,-3.8 -0.6,-1.6 -0.9,-3.7 -0.9,-6.3 V 47.1 Z" />
		<path
   id="path8"
   d="m 336.6,41.9 c 5.4,0 10.3,0.6 14.8,1.7 4.4,1.1 8.3,2.8 11.4,5 3.1,2.3 5.6,5.1 7.3,8.6 1.7,3.4 2.5,7.5 2.5,12.2 V 103 c 0,2.6 -0.7,4.7 -2.2,6.4 -1.5,1.7 -3.2,3.1 -5.2,4.3 -6.5,3.9 -15.7,5.8 -27.5,5.8 -5.3,0 -10.1,-0.5 -14.3,-1.5 -4.3,-1 -7.9,-2.5 -10.9,-4.5 -3.1,-2 -5.4,-4.5 -7.1,-7.6 -1.6,-3.1 -2.5,-6.7 -2.5,-10.8 0,-6.9 2,-12.2 6.2,-15.9 4.1,-3.7 10.4,-6 19,-6.9 l 19.6,-2.1 v -1 c 0,-2.9 -1.3,-5 -3.8,-6.2 -2.6,-1.2 -6.2,-1.9 -11,-1.9 -3.8,0 -7.5,0.4 -11.1,1.2 -3.6,0.8 -6.9,1.8 -9.8,3 -1.3,-0.9 -2.4,-2.3 -3.3,-4.1 -0.9,-1.8 -1.3,-3.8 -1.3,-5.8 0,-2.6 0.6,-4.7 1.9,-6.2 1.2,-1.5 3.2,-2.9 5.8,-4 2.9,-1.1 6.3,-1.9 10.3,-2.4 4,-0.7 7.7,-0.9 11.2,-0.9 z m 1.2,58.9 c 1.7,0 3.6,-0.2 5.6,-0.5 2,-0.3 3.6,-0.8 4.6,-1.4 v -12 l -10.8,0.9 c -2.8,0.2 -5.1,0.8 -6.9,1.8 -1.8,1 -2.7,2.5 -2.7,4.5 0,2 0.8,3.6 2.3,4.9 1.6,1.2 4.2,1.8 7.9,1.8 z"
   class="fill" />&quot;
   inkscape:connector-curvature=&quot;0&quot; /&gt;
		<path
   id="path10"
   d="m 449.7,95.3 c 0,7.6 -2.8,13.6 -8.5,17.8 -5.7,4.3 -14.1,6.5 -25.2,6.5 -4.2,0 -8.1,-0.3 -11.7,-0.9 -3.6,-0.6 -6.7,-1.5 -9.2,-2.8 -2.5,-1.3 -4.6,-2.8 -6,-4.7 -1.5,-1.9 -2.2,-4.1 -2.2,-6.8 0,-2.4 0.5,-4.4 1.5,-6.1 1,-1.7 2.2,-3 3.6,-4.1 2.9,1.6 6.2,3 10,4.3 3.8,1.3 8.1,1.9 13,1.9 3.1,0 5.5,-0.5 7.1,-1.3 1.7,-0.9 2.5,-2.1 2.5,-3.6 0,-1.4 -0.6,-2.5 -1.8,-3.3 -1.2,-0.8 -3.2,-1.4 -6,-2 l -4.5,-0.9 c -8.7,-1.7 -15.2,-4.4 -19.4,-8 -4.3,-3.6 -6.4,-8.9 -6.4,-15.7 0,-3.7 0.8,-7 2.4,-10 1.6,-3 3.8,-5.5 6.8,-7.5 2.9,-2 6.4,-3.5 10.4,-4.7 4,-1.1 8.5,-1.6 13.4,-1.6 3.7,0 7.2,0.3 10.4,0.8 3.2,0.6 6.1,1.4 8.5,2.5 2.4,1.1 4.3,2.5 5.7,4.3 1.4,1.8 2.1,3.8 2.1,6.2 0,2.3 -0.4,4.3 -1.3,5.9 -0.9,1.7 -1.9,3 -3.2,4.1 -0.8,-0.5 -2,-1 -3.6,-1.6 -1.6,-0.5 -3.4,-1 -5.3,-1.5 -1.9,-0.5 -3.8,-0.8 -5.8,-1.1 -2,-0.3 -3.7,-0.5 -5.3,-0.5 -3.3,0 -5.8,0.4 -7.7,1.1 -1.8,0.8 -2.7,1.9 -2.7,3.5 0,1.1 0.5,2 1.5,2.7 1,0.7 2.9,1.3 5.7,2 l 4.7,1 c 9.6,2.2 16.4,5.2 20.5,9.1 4,3.9 6,8.9 6,15 z"
   class="fill" />&quot;
   inkscape:connector-curvature=&quot;0&quot; /&gt;
		<path
   id="path12"
   d="m 533.2,103.8 c -0.5,4.7 -1.9,8.3 -4.1,10.8 -2.3,2.5 -5.5,3.8 -9.8,3.8 -3.2,0 -6.1,-0.8 -8.5,-2.3 -2.5,-1.5 -5.2,-4.2 -8.1,-7.9 L 487.8,89.6 v 27.3 c -1.1,0.2 -2.7,0.5 -4.9,0.8 -2.2,0.3 -4.3,0.5 -6.5,0.5 -2.2,0 -4.2,-0.2 -5.9,-0.5 -1.8,-0.3 -3.2,-0.9 -4.4,-1.8 -1.2,-0.9 -2.1,-2.1 -2.8,-3.7 -0.7,-1.5 -1,-3.6 -1,-6.1 V 19.4 c 1.1,-0.3 2.7,-0.6 4.9,-1 2.1,-0.3 4.3,-0.5 6.5,-0.5 2.2,0 4.2,0.2 5.9,0.5 1.7,0.3 3.2,0.9 4.4,1.8 1.2,0.9 2.1,2.1 2.8,3.7 0.6,1.6 1,3.6 1,6.1 v 39.6 l 25.8,-26.4 c 5.2,0 9.4,1.2 12.5,3.5 3.2,2.3 4.7,5.2 4.7,8.7 0,1.5 -0.3,2.9 -0.8,4.1 -0.5,1.3 -1.3,2.5 -2.3,3.8 -1,1.3 -2.4,2.7 -4,4.1 -1.7,1.5 -3.6,3.1 -5.8,5 l -8.7,7.5 z"
   class="fill" />
</g>
<g
   id="g27"
   transform="matrix(2.9118113,0,0,2.9118113,404.26109,-1245.034)">

	<path
   id="path15"
   class="fill"
   d="m 82.3,439.4 c 0,-0.6 -0.2,-1.1 -0.6,-1.5 L 80.8,437 c -0.4,-0.4 -1,-0.6 -1.5,-0.6 -0.5,0 -1.1,0.2 -1.5,0.6 l -4,4 v -4.3 c 0,-0.4 -0.3,-0.8 -0.8,-0.8 H 44.4 c -0.4,0 -0.8,0.3 -0.8,0.8 v 28.5 c 0,0.4 0.3,0.8 0.8,0.8 h 28.5 c 0.4,0 0.8,-0.3 0.8,-0.8 V 449 l 8,-8 c 0.4,-0.4 0.6,-1 0.6,-1.6 z M 72.1,464.5 H 45.2 v -26.9 h 26.9 v 5.1 l -14.1,14 c -0.1,0.1 -0.1,0.2 -0.2,0.3 l -1.4,4.3 c -0.1,0.3 0,0.6 0.2,0.8 0.1,0.1 0.3,0.2 0.5,0.2 0.1,0 0.2,0 0.2,0 l 4.3,-1.4 c 0.1,0 0.2,-0.1 0.3,-0.2 L 72,450.6 v 13.9 z m -11.1,-5 -2.7,0.9 0.9,-2.7 16.3,-16.3 1.8,1.8 z m 19.6,-19.6 -2.1,2.1 -0.9,-0.9 -0.9,-0.9 2.1,-2.1 c 0.1,-0.1 0.3,-0.2 0.5,-0.2 0.2,0 0.3,0.1 0.5,0.2 l 0.9,0.9 c 0,0 0,0 0,0 0.1,0.1 0.2,0.3 0.2,0.5 -0.1,0.1 -0.2,0.3 -0.3,0.4 z" />
	<path
   id="path17"
   class="fill"
   d="M 67.7,440.8 H 67 c -0.4,0 -0.8,0.3 -0.8,0.8 0,0.5 0.3,0.8 0.8,0.8 h 0.7 c 0.4,0 0.8,-0.3 0.8,-0.8 0,-0.4 -0.4,-0.8 -0.8,-0.8 z" />
	<path
   id="path19"
   class="fill"
   d="m 63.6,440.8 h -14 c -0.4,0 -0.8,0.3 -0.8,0.8 0,0.5 0.3,0.8 0.8,0.8 h 14 c 0.4,0 0.8,-0.3 0.8,-0.8 0,-0.4 -0.4,-0.8 -0.8,-0.8 z" />
	<path
   id="path21"
   class="fill"
   d="M 62.9,445.3 H 49.6 c -0.4,0 -0.8,0.3 -0.8,0.8 0,0.4 0.3,0.8 0.8,0.8 h 13.3 c 0.4,0 0.8,-0.3 0.8,-0.8 -0.1,-0.5 -0.4,-0.8 -0.8,-0.8 z" />
	<path
   id="path23"
   class="fill"
   d="m 58.1,449.8 h -8.5 c -0.4,0 -0.8,0.3 -0.8,0.8 0,0.4 0.3,0.8 0.8,0.8 h 8.5 c 0.4,0 0.8,-0.3 0.8,-0.8 -0.1,-0.5 -0.4,-0.8 -0.8,-0.8 z" />
	<path
   id="path25"
   class="fill"
   d="m 54.4,454.2 h -4.8 c -0.4,0 -0.8,0.3 -0.8,0.8 0,0.5 0.3,0.8 0.8,0.8 h 4.8 c 0.4,0 0.8,-0.3 0.8,-0.8 0,-0.5 -0.4,-0.8 -0.8,-0.8 z" />
		
</g></svg>