<?xml version="1.0" encoding="utf-8"?>
<!-- Generator: Adobe Illustrator 19.0.0, SVG Export Plug-In . SVG Version: 6.00 Build 0)  -->
<svg version="1.1" id="Layer_1" xmlns="http://www.w3.org/2000/svg" xmlns:xlink="http://www.w3.org/1999/xlink" x="0px" y="0px"
	 viewBox="43 431 40 40" style="enable-background:new 43 431 40 40;" xml:space="preserve">
<g>

	<path class="fill" d="M82.3,439.4c0-0.6-0.2-1.1-0.6-1.5l-0.9-0.9c-0.4-0.4-1-0.6-1.5-0.6s-1.1,0.2-1.5,0.6l-4,4v-4.3
		c0-0.4-0.3-0.8-0.8-0.8H44.4c-0.4,0-0.8,0.3-0.8,0.8v28.5c0,0.4,0.3,0.8,0.8,0.8h28.5c0.4,0,0.8-0.3,0.8-0.8l0-16.2l8-8
		C82.1,440.6,82.3,440,82.3,439.4z M72.1,464.5H45.2v-26.9h26.9v5.1L58,456.7c-0.1,0.1-0.1,0.2-0.2,0.3l-1.4,4.3
		c-0.1,0.3,0,0.6,0.2,0.8c0.1,0.1,0.3,0.2,0.5,0.2c0.1,0,0.2,0,0.2,0l4.3-1.4c0.1,0,0.2-0.1,0.3-0.2l10.1-10.1V464.5z M61,459.5
		l-2.7,0.9l0.9-2.7l16.3-16.3l1.8,1.8L61,459.5z M80.6,439.9l-2.1,2.1l-0.9-0.9l-0.9-0.9l2.1-2.1c0.1-0.1,0.3-0.2,0.5-0.2
		c0.2,0,0.3,0.1,0.5,0.2l0.9,0.9c0,0,0,0,0,0c0.1,0.1,0.2,0.3,0.2,0.5C80.8,439.6,80.7,439.8,80.6,439.9z"/>
	<path class="fill" d="M67.7,440.8H67c-0.4,0-0.8,0.3-0.8,0.8s0.3,0.8,0.8,0.8h0.7c0.4,0,0.8-0.3,0.8-0.8
		C68.5,441.2,68.1,440.8,67.7,440.8z"/>
	<path class="fill" d="M63.6,440.8h-14c-0.4,0-0.8,0.3-0.8,0.8s0.3,0.8,0.8,0.8h14c0.4,0,0.8-0.3,0.8-0.8
		C64.4,441.2,64,440.8,63.6,440.8z"/>
	<path class="fill" d="M62.9,445.3H49.6c-0.4,0-0.8,0.3-0.8,0.8c0,0.4,0.3,0.8,0.8,0.8h13.3c0.4,0,0.8-0.3,0.8-0.8
		C63.6,445.6,63.3,445.3,62.9,445.3z"/>
	<path class="fill" d="M58.1,449.8h-8.5c-0.4,0-0.8,0.3-0.8,0.8c0,0.4,0.3,0.8,0.8,0.8h8.5c0.4,0,0.8-0.3,0.8-0.8
		C58.8,450.1,58.5,449.8,58.1,449.8z"/>
	<path class="fill" d="M54.4,454.2h-4.8c-0.4,0-0.8,0.3-0.8,0.8s0.3,0.8,0.8,0.8h4.8c0.4,0,0.8-0.3,0.8-0.8S54.8,454.2,54.4,454.2z
		"/>
		
</g>
</svg>
