<?xml version="1.0" encoding="utf-8"?>
<!-- Generator: Adobe Illustrator 19.0.0, SVG Export Plug-In . SVG Version: 6.00 Build 0)  -->
<svg version="1.1" id="Capa_1" xmlns="http://www.w3.org/2000/svg" xmlns:xlink="http://www.w3.org/1999/xlink" x="0px" y="0px"
	 viewBox="-167.5 435.5 30 30" style="enable-background:new -167.5 435.5 30 30;" xml:space="preserve">
<g>
	<path class="fill" d="M-141.8,440.9c-3-3.5-7-5.4-11.2-5.4c-3.5,0-6.9,1.4-9.4,3.8c-4,3.9-5.4,8.6-3.7,12.9c1.4,3.4,4.6,5.9,7.8,5.9
		c0.1,0,0.2,0,0.3,0c0.5,0,0.9-0.1,1.4-0.1c0.5,0,1-0.1,1.5-0.1c1.1,0,2,0,2,2.7c0,2.9,1.8,4.9,4.3,4.9c0,0,0,0,0,0
		c1.8,0,3.8-1,5.8-3c2.6-2.6,4.4-6.3,4.8-10.1C-137.8,448.2-139.1,444.1-141.8,440.9z M-144.5,461c-1.6,1.6-3.1,2.4-4.3,2.4
		c-1.6,0-2.2-1.5-2.2-2.9c0-3.3-1.3-4.8-4.1-4.8c-0.5,0-1.1,0-1.7,0.1c-0.4,0-0.9,0.1-1.3,0.1c-0.1,0-0.1,0-0.2,0
		c-2.3,0-4.8-1.9-5.9-4.6c-1.4-3.4-0.2-7.3,3.2-10.6c2.1-2.1,5-3.2,8-3.2c3.6,0,7,1.7,9.6,4.7C-138.3,448.2-140,456.4-144.5,461z"/>
	<path class="fill" d="M-148,452.3c0,1.7,1.4,3.2,3.1,3.2c1.7,0,3.1-1.4,3.1-3.2c0-1.7-1.4-3.2-3.1-3.2C-146.6,449.1-148,450.5-148,452.3z
		 M-143.9,452.3c0,0.6-0.5,1.1-1.1,1.1c-0.6,0-1.1-0.5-1.1-1.1c0-0.6,0.5-1.1,1.1-1.1C-144.3,451.2-143.9,451.7-143.9,452.3z"/>
	<path class="fill" d="M-144.6,444.9c0-1.7-1.4-3.2-3.1-3.2c-1.7,0-3.1,1.4-3.1,3.2c0,1.7,1.4,3.2,3.1,3.2C-146,448.1-144.6,446.7-144.6,444.9z
		 M-148.8,444.9c0-0.6,0.5-1.1,1.1-1.1c0.6,0,1.1,0.5,1.1,1.1c0,0.6-0.5,1.1-1.1,1.1C-148.3,446-148.8,445.5-148.8,444.9z"/>
	<path class="fill" d="M-154.9,439.5c-1.7,0-3.1,1.4-3.1,3.2c0,1.7,1.4,3.2,3.1,3.2s3.1-1.4,3.1-3.2C-151.8,440.9-153.2,439.5-154.9,439.5z
		 M-154.9,443.7c-0.6,0-1.1-0.5-1.1-1.1c0-0.6,0.5-1.1,1.1-1.1c0.6,0,1.1,0.5,1.1,1.1C-153.8,443.2-154.3,443.7-154.9,443.7z"/>
	<path class="fill" d="M-160.3,444.9c-1.7,0-3.1,1.4-3.1,3.2c0,1.7,1.4,3.2,3.1,3.2s3.1-1.4,3.1-3.2C-157.2,446.3-158.6,444.9-160.3,444.9z
		 M-160.3,449.1c-0.6,0-1.1-0.5-1.1-1.1c0-0.6,0.5-1.1,1.1-1.1c0.6,0,1.1,0.5,1.1,1.1C-159.3,448.6-159.8,449.1-160.3,449.1z"/>
</g>
</svg>
