<?xml version="1.0" encoding="utf-8"?>
<!-- Generator: Adobe Illustrator 19.0.0, SVG Export Plug-In . SVG Version: 6.00 Build 0)  -->
<svg version="1.1" xmlns="http://www.w3.org/2000/svg" xmlns:xlink="http://www.w3.org/1999/xlink" x="0px" y="0px"
	 viewBox="-442 436 30 30" style="enable-background:new -442 436 30 30;" xml:space="preserve">
<g id="Layer_1">
	<path class="st0" d="M-434.7,447.4c-0.1,0.5,0.2,1,0.7,1.1l-1.9,10.3c-0.2,1.3,0.6,2.4,1.8,2.7l8.4,1.6c1.3,0.2,2.4-0.6,2.7-1.8
		l1.9-10.2c0.5,0,1-0.3,1.1-0.8 M-424.3,461.1c-0.1,0.6-0.7,1-1.3,0.9l-8.4-1.6c-0.6-0.1-1-0.7-0.9-1.3l1.9-10.3l10.4,1.9
		L-424.3,461.1L-424.3,461.1z"/>
	<path class="st0" d="M-429.4,459.4c-0.4-0.1-0.5-0.4-0.5-0.7l1.2-6.7c0.1-0.4,0.4-0.5,0.7-0.5c0.3,0.1,0.5,0.4,0.5,0.7l-1.2,6.7
		C-428.8,459.2-429,459.5-429.4,459.4z"/>
	<path class="st0" d="M-432.4,458.9c-0.4-0.1-0.5-0.4-0.5-0.7l1.2-6.7c0.1-0.4,0.4-0.5,0.7-0.5c0.4,0.1,0.5,0.4,0.5,0.7l-1.2,6.7
		C-431.6,458.7-432,459-432.4,458.9z"/>
	<path class="st0" d="M-426.5,460c-0.4-0.1-0.5-0.4-0.5-0.7l1.2-6.7c0.1-0.4,0.4-0.5,0.7-0.5c0.4,0.1,0.5,0.4,0.5,0.7l-1.2,6.7
		C-425.8,459.8-426.2,460-426.5,460z"/>
</g>
<g id="Layer_2">
	<path class="st0" d="M-419.7,444.6c0.5-0.2,0.8-0.7,0.7-1.1l-0.2-1.3c-0.3-1.3-1.5-2.1-2.8-1.8l-1.9,0.4l-0.1-0.3
		c-0.2-1.3-1.4-2.1-2.7-1.8l-1.7,0.3c-1.3,0.2-2.2,1.4-1.9,2.7l0,0.2l-1.9,0.4c-1.3,0.2-2.1,1.4-1.8,2.7l0.2,1.3
		c0.1,0.5,0.6,0.8,1.1,0.8 M-429,441.3c-0.1-0.6,0.3-1.2,0.9-1.3l1.7-0.3c0.6-0.1,1.2,0.3,1.3,0.9l0,0.2l-3.8,0.7L-429,441.3z
			M-431.5,446.8l10.4-2 M-420.3,443.5l-12.2,2.3l-0.2-1.1c-0.1-0.6,0.3-1.2,0.9-1.3l10-1.9c0.6-0.1,1.2,0.3,1.3,0.9L-420.3,443.5z"
		/>
</g>
</svg>
